<svg width="307" height="767" viewBox="0 0 307 767" fill="none" xmlns="http://www.w3.org/2000/svg">
<g id="body-front" filter="url(#filter0_d_1_8)">
<g id="body">
    <path d="M131.5 104V95L146 104H165L175.5 97.5L181 88.5L183.5 102L228.5 131.5C237.282 135.407 240.28 138.041 244.5 143C249.08 146.934 249.98 147.807 250.5 148.5C255.573 155.741 256.597 159.94 257.5 167.5V215.5L262 261.5L270.5 286.5L267.5 327.5L270.5 376L291.5 397.5V405L300.5 413.5C301.333 414.5 304 420 300.5 420C297 420 293.667 420.167 291.5 418.5L281.5 405C279.942 404.801 280.532 455.606 279 456C277.468 456.394 273.825 455.891 274 453L272 462.5C272 462.5 264.5 465 264.5 462.5V453C263.592 456.407 263.061 458.182 261.5 457.5C259.442 458.236 258.548 457.957 257.5 456L255 437L252.5 447.5H250C247.5 447.5 241.5 416.5 241.5 416.5V359L226 304L222.5 237C219.167 248 212.4 273.8 212 289C211.6 304.2 214.167 314 215.5 317L229 385V441L226 466.5L209.5 525L205 561.5L203.5 621.5L184.5 697L183 724.5L190 739L204.5 751V758.5H184.5H174.5L164.5 755.5L155.5 738L154.5 710L160.5 696L157.5 641L154.5 624.5L155.5 602.5L163.5 564.5V558L161.5 529L160 482L157.5 457.5V416L160.5 397.5H154.5L156 424L151 480L149.5 532L144 573L149.5 602.5L147 649.5V691.5L153.5 713.5V739L158 747.5V758.5H121L118.5 755.5V748.5L124 737V724.5L121 696L113.5 665.5L99.5 615.5V590.5L103 566.5V538L100 509L85 433V409.5V385L91 353V335L97 313.5V293L99 282.5V243.5L95 237L87.5 270L85 306L64.5 379.5V418.5L57.5 447.5L55.5 449.5L52.5 447.5L54 431H52.5L49 453L47 459H42L39.5 456V460.5L37 462.5L33.5 460.5V453L31.5 456H29L24.5 451L26.5 405H24.5L22.5 409.5L13.5 420H4.5V416.5L13.5 407.5L19 394L39.5 377.5L42 355.5L43.5 323V280.5L51.5 256.5L55 217.5L57 204C55.9663 190.659 56.2281 182.436 57 167.5C58.1875 161.963 58.5232 158.985 63.5 152C66.591 147.769 69.1278 145.157 77 139.5C82.4041 135.778 86.2702 134.172 93.5 131.5L131.5 104Z" fill="#F2BDBB"/>
    <path d="M238.5 139.5C240 138.301 244.5 143 244.5 143M244.5 143C249.08 146.934 249.98 147.807 250.5 148.5C255.573 155.741 256.597 159.94 257.5 167.5V215.5L262 261.5L270.5 286.5L267.5 327.5L270.5 376L291.5 397.5V405L300.5 413.5C301.333 414.5 304 420 300.5 420C297 420 293.667 420.167 291.5 418.5L281.5 405C279.942 404.801 280.532 455.606 279 456C277.468 456.394 273.825 455.891 274 453L272 462.5C272 462.5 264.5 465 264.5 462.5C264.5 460 264.5 453 264.5 453C263.592 456.407 263.061 458.182 261.5 457.5C259.442 458.236 258.548 457.957 257.5 456L255 437L252.5 447.5C252.5 447.5 252.5 447.5 250 447.5C247.5 447.5 241.5 416.5 241.5 416.5V359L226 304L222.5 237C219.167 248 212.4 273.8 212 289C211.6 304.2 214.167 314 215.5 317L229 385V441L226 466.5L209.5 525L205 561.5L203.5 621.5L184.5 697L183 724.5L190 739L204.5 751V758.5H184.5H174.5L164.5 755.5L155.5 738L154.5 710L160.5 696L157.5 641L154.5 624.5L155.5 602.5L163.5 564.5V558L161.5 529L160 482L157.5 457.5V416L160.5 397.5H154.5L156 424L151 480L149.5 532L144 573L149.5 602.5L147 649.5V691.5L153.5 713.5V739L158 747.5V758.5H121L118.5 755.5V748.5L124 737V724.5L121 696L113.5 665.5L99.5 615.5V590.5L103 566.5V538L100 509L85 433V409.5V385L91 353V335L97 313.5V293L99 282.5V243.5L95 237L87.5 270L85 306L64.5 379.5V418.5L57.5 447.5L55.5 449.5L52.5 447.5L54 431H52.5L49 453L47 459H42L39.5 456V460.5L37 462.5L33.5 460.5V453L31.5 456H29L24.5 451L26.5 405H24.5L22.5 409.5L13.5 420H4.5V416.5L13.5 407.5L19 394L39.5 377.5L42 355.5L43.5 323V280.5L51.5 256.5L55 217.5L57 204C55.9663 190.659 56.2281 182.436 57 167.5C58.1875 161.963 58.5232 158.985 63.5 152C66.591 147.769 69.1278 145.157 77 139.5C82.4041 135.778 86.2702 134.172 93.5 131.5L131.5 104V95L146 104H165L175.5 97.5L181 88.5L183.5 102L228.5 131.5C237.282 135.407 240.28 138.041 244.5 143Z" stroke="black"/>
</g>
    <path id="head" d="M121 25.5L130 11.5L139 5.5C139 5.5 141.5 1 153.5 1C165.5 1 170.267 6.65609 176 11.5L187.5 25.5V50L193.5 46V55L187.5 71.5H182.5V84L176 97L165.5 104.5H153.5H146.5L133.5 97L125 84V71.5H121L113.5 55L117 46L121 50V25.5Z" fill="#F2BDBB" stroke="black"/>
<g class="hover" id="neck">
    <path id="neck-front" d="M138.5 116L133 104.5V100H135.5L146 104.5H165.5L176.5 98.5L180 97.5V104.5L176.5 116V132.5L158 138L138.5 132.5V116Z" fill="#B73131" stroke="black"/>
</g>
<g class="hover" id="shoulder">
    <path id="shoulder-left" d="M224.042 136C226.255 135.785 227.352 135.395 228 132.235L184.958 104C182.537 103.675 181.677 104.289 181 106.824L181 129.882C181.557 132.838 182.165 134.106 184.958 134.118L224.042 136Z" fill="url(#paint0_linear_1_8)" stroke="black"/>
    <path id="shoulder-right" d="M96.8869 137.787C93.172 136.542 93.1113 135.74 93.2665 134.298C106.619 122.096 114.745 115.906 129.718 105.353C130.886 105.664 131.445 105.55 133.299 107.932C133.502 108.167 133.816 117.908 134.272 130.228C134.14 131.923 134.036 132.872 130.989 134.474L96.8869 137.787Z" fill="url(#paint1_linear_1_8)" stroke="black"/>
</g>
<g class="hover" id="chest">
    <path id="Vector 1" d="M158 178L147.5 149H126.5L106 158L98.5 174L96 187L106 205.5L120 210.5H142L150.5 205.5L158 192.5V178Z" fill="#B73131" stroke="black"/>
    <path id="Vector 2" d="M164 178L169.5 151L193.5 149L214 158L221.5 174L223 186.5L214 205.5L200 210.5H178L169.5 205.5L164 192.5V178Z" fill="#B73131" stroke="black"/>
</g>
<g class="hover" id="stomach">
<path d="M159.5 217L156 210.5H140C137 212.667 129.9 219.8 125.5 231C121.1 242.2 123.667 243.667 125.5 243L140 235L152 233C155.222 232.743 156.888 231.873 159.5 228.5V217Z" fill="url(#paint2_linear_1_8)"/>
<path d="M162.5 219C162.5 211.4 163.833 210.167 164.5 210.5L186.5 213.5L195 219V231V247.5H191L174.5 238.5L164.5 235C163.833 232.833 162.5 226.6 162.5 219Z" fill="url(#paint3_linear_1_8)"/>
<path d="M156 235L159.5 240.5C159.859 241.064 160.263 241.926 160.567 243L162.5 238.5H170L193 252.5C193.864 257.483 192.287 265.427 191 265C190.62 264.874 181.667 263.167 177 262L160.567 257.5L159.5 255.5V252.5C156.7 257.7 142 259.333 135 259.5H123.5C123.551 252.669 123.713 249.234 125.5 247.5L137.5 238.5C145.691 235.96 149.721 235.198 156 235Z" fill="url(#paint4_linear_1_8)"/>
<path d="M123.5 280V262H156L158 266.5L159.5 284.5L154 287.5H125.5L123.5 280Z" fill="url(#paint5_linear_1_8)"/>
<path d="M160.567 266.5L162.5 262L174.5 265L191 270.5V282C191 288 188 289.5 186.5 289.5L167.5 287.5C163.488 285.863 161.836 284.352 160.567 280V266.5Z" fill="url(#paint6_linear_1_8)"/>
<path d="M152 290.5H127C125.896 295.832 126.781 297.899 128.5 301.5L132.5 314L144 347.5L152 369C152.989 375.96 153.395 377.688 154 379C160.687 382.474 163.992 381.241 169.752 379.093L170 379L180.5 355C185.496 340.683 187.928 331.959 191 314V299C189.951 295.283 189.141 293.57 186.5 292.5L167.5 290.5C164.006 291.509 162.45 292.561 160.567 295.5C155.63 291.424 153.937 290.574 152 290.5Z" fill="url(#paint7_linear_1_8)"/>
<path d="M201.5 219L218.5 225L213 235H216L218.5 237.5V247.5L215 264L211.5 286L214 314L198.5 332.5L196 333V315.5V297L202 292L198 290.5L197 280L200.5 275.5C199.7 276.3 198.5 275.167 198 274.5L197 266.5L199.5 258.5L204.5 255.5L198 254L199 243L201.5 235C200 234 197.2 231.3 198 228.5C198.8 225.7 199.667 220.667 200 218.5L201.5 219Z" fill="url(#paint8_linear_1_8)"/>
<path d="M103 225C104.2 222.2 110.5 221.5 113.5 221.5H123.5V228.5L119 233L120.5 235.5L121 245C120.5 245.5 119.1 246.8 117.5 248V254L119 262L113.5 266.5C114.333 268.667 116.3 273.7 117.5 276.5C118.7 279.3 118 283.667 117.5 285.5L113.5 289.5L122.5 298V313C122.727 319.053 122.788 322.447 122.5 328.5H117.5L97.5 313C97.1667 307.667 96.5 296.7 96.5 295.5C96.5 294.3 98.5 287.667 99.5 284.5V274.5V254V249V242L100.5 237L105.5 233L103 231C102.5 230.167 101.8 227.8 103 225Z" fill="url(#paint9_linear_1_8)"/>
<path d="M159.5 252.5C156.7 257.7 142 259.333 135 259.5H123.5C123.551 252.669 123.713 249.234 125.5 247.5L137.5 238.5C145.691 235.96 149.721 235.198 156 235L159.5 240.5C159.859 241.064 160.263 241.926 160.567 243M159.5 252.5C161.438 248.901 161.252 245.414 160.567 243M159.5 252.5V255.5L160.567 257.5L177 262C181.667 263.167 190.62 264.874 191 265C192.287 265.427 193.864 257.483 193 252.5L170 238.5H162.5L160.567 243M213 235L218.5 225L201.5 219L200 218.5C199.667 220.667 198.8 225.7 198 228.5C197.2 231.3 200 234 201.5 235M213 235H201.5M213 235H216L218.5 237.5V247.5M201.5 235L199 243L198 254L204.5 255.5M218.5 247.5L204.5 255.5M218.5 247.5L215 264M204.5 255.5L199.5 258.5L197 266.5L198 274.5C198.5 275.167 199.7 276.3 200.5 275.5M200.5 275.5C201.3 274.7 210.5 267.5 215 264M200.5 275.5L197 280L198 290.5L202 292M215 264L211.5 286M202 292L211.5 286M202 292L196 297V315.5V333L198.5 332.5L214 314L211.5 286M105.5 233L103 231C102.5 230.167 101.8 227.8 103 225C104.2 222.2 110.5 221.5 113.5 221.5H123.5V228.5L119 233M105.5 233H119M105.5 233L100.5 237L99.5 242M119 233L120.5 235.5L121 245C120.5 245.5 119.1 246.8 117.5 248M99.5 242L108 245C110.5 246.5 115.9 249.2 117.5 248M99.5 242V249M117.5 248V254L119 262L113.5 266.5M113.5 266.5C110.833 266 105 263.9 103 259.5C101 255.1 99.8333 250.667 99.5 249M113.5 266.5C114.333 268.667 116.3 273.7 117.5 276.5C118.7 279.3 118 283.667 117.5 285.5L113.5 289.5M99.5 249V254V274.5M113.5 289.5C112.167 289 108.5 287 104.5 283C100.5 279 99.5 275.667 99.5 274.5M113.5 289.5L122.5 298V313C122.727 319.053 122.788 322.447 122.5 328.5H117.5L97.5 313C97.1667 307.667 96.5 296.7 96.5 295.5C96.5 294.3 98.5 287.667 99.5 284.5V274.5M156 210.5L159.5 217V228.5C156.888 231.873 155.222 232.743 152 233L140 235L125.5 243C123.667 243.667 121.1 242.2 125.5 231C129.9 219.8 137 212.667 140 210.5H156ZM164.5 210.5C163.833 210.167 162.5 211.4 162.5 219C162.5 226.6 163.833 232.833 164.5 235L174.5 238.5L191 247.5H195V231V219L186.5 213.5L164.5 210.5ZM123.5 262V280L125.5 287.5H154L159.5 284.5L158 266.5L156 262H123.5ZM162.5 262L160.567 266.5V280C161.836 284.352 163.488 285.863 167.5 287.5L186.5 289.5C188 289.5 191 288 191 282C191 276 191 271.833 191 270.5L174.5 265L162.5 262ZM127 290.5H152C153.937 290.574 155.63 291.424 160.567 295.5C162.45 292.561 164.006 291.509 167.5 290.5L186.5 292.5C189.141 293.57 189.951 295.283 191 299V314C187.928 331.959 185.496 340.683 180.5 355L170 379C164.086 381.205 160.783 382.524 154 379C153.395 377.688 152.989 375.96 152 369L144 347.5L132.5 314L128.5 301.5C126.781 297.899 125.896 295.832 127 290.5Z" stroke="black"/>
</g>
<g class="hover" id="arms">
<path d="M99.5 160.5V144C88.8114 142.382 82.4568 142.894 70.5 146.5C62.2158 153.149 60.1073 158.033 58 167.5V202C57.9189 208.019 58.4471 209.079 60 208.5C62.5943 208.859 63.8458 207.665 66 205C73.3362 203.405 78.9963 200.627 80 198C82.4272 191.648 89.8333 187.667 91 184.5V173C91 167 96.6667 162.167 99.5 160.5Z" fill="url(#paint10_linear_1_8)"/>
<path d="M80 202C83.0502 195.316 85.4694 193.225 90 190C92.9595 188.369 93.1921 193.545 92.5 207.5L93.5 236C93.6765 236.399 80.1526 258.724 80 259C79.8474 259.276 76.3856 267.903 74 271H61.5L54.5 259V241C55.7344 232.474 56.3928 227.462 58 221.5C58.9189 213.47 62.6153 211.92 68.5 208.5L80 202Z" fill="url(#paint11_linear_1_8)"/>
<path d="M58 283.5L52.5 271C50.7564 268.786 49.697 268.406 47.5 271L43.5 282.5L44.5 303.5L43 350C42.7164 355.077 42.6036 357.923 43 363L47.5 367C50.8242 369.267 52.7486 370.359 58 367L66 363L68 350L83.5 303.5V289C82.5163 286.715 81.51 285.457 74 283.5H58Z" fill="url(#paint12_linear_1_8)"/>
<path d="M220 164.5L218 144V141.5H239L249.5 150.5L255.5 164.5V213.5L253 225.5L229.5 189.5L225.5 180L220 164.5Z" fill="url(#paint13_linear_1_8)"/>
<path d="M253 233.5C250.5 231.5 239.906 210.607 227.5 194.5C225.36 193.206 224.537 193.396 224 196C223.5 202.667 223.1 220.9 225.5 240.5C227.9 260.1 230.5 268 231.5 269.5H239C243.123 271.82 250.633 272.849 253 272.5C255.881 272.076 258.5 270.833 259.5 269.5C259.333 267.167 259.1 260.1 259.5 250.5C259.9 240.9 255.5 235.5 253 233.5Z" fill="url(#paint14_linear_1_8)"/>
<path d="M264 276H257.5C248.833 275.5 231.1 274.1 229.5 272.5C227.9 270.9 226.5 274.167 226 276L227.5 303L231.5 318L243 359L248.5 371.5H257.5L264 368L265.5 357.5V329L269 288.5L264 276Z" fill="url(#paint15_linear_1_8)"/>
<path d="M99.5 160.5V144C88.8114 142.382 82.4568 142.894 70.5 146.5C62.2158 153.149 60.1073 158.033 58 167.5V202C57.9189 208.019 58.4471 209.079 60 208.5C62.5943 208.859 63.8458 207.665 66 205C73.3362 203.405 78.9963 200.627 80 198C82.4272 191.648 89.8333 187.667 91 184.5V173C91 167 96.6667 162.167 99.5 160.5Z" stroke="black"/>
<path d="M80 202C83.0502 195.316 85.4694 193.225 90 190C92.9595 188.369 93.1921 193.545 92.5 207.5L93.5 236C93.6765 236.399 80.1526 258.724 80 259C79.8474 259.276 76.3856 267.903 74 271H61.5L54.5 259V241C55.7344 232.474 56.3928 227.462 58 221.5C58.9189 213.47 62.6153 211.92 68.5 208.5L80 202Z" stroke="black"/>
<path d="M58 283.5L52.5 271C50.7564 268.786 49.697 268.406 47.5 271L43.5 282.5L44.5 303.5L43 350C42.7164 355.077 42.6036 357.923 43 363L47.5 367C50.8242 369.267 52.7486 370.359 58 367L66 363L68 350L83.5 303.5V289C82.5163 286.715 81.51 285.457 74 283.5H58Z" stroke="black"/>
<path d="M220 164.5L218 144V141.5H239L249.5 150.5L255.5 164.5V213.5L253 225.5L229.5 189.5L225.5 180L220 164.5Z" stroke="black"/>
<path d="M253 233.5C250.5 231.5 239.906 210.607 227.5 194.5C225.36 193.206 224.537 193.396 224 196C223.5 202.667 223.1 220.9 225.5 240.5C227.9 260.1 230.5 268 231.5 269.5H239C243.123 271.82 250.633 272.849 253 272.5C255.881 272.076 258.5 270.833 259.5 269.5C259.333 267.167 259.1 260.1 259.5 250.5C259.9 240.9 255.5 235.5 253 233.5Z" stroke="black"/>
<path d="M264 276H257.5C248.833 275.5 231.1 274.1 229.5 272.5C227.9 270.9 226.5 274.167 226 276L227.5 303L231.5 318L243 359L248.5 371.5H257.5L264 368L265.5 357.5V329L269 288.5L264 276Z" stroke="black"/>
</g>
<g class="hover" id="legs">
<path d="M138.5 368.5C128.037 349.56 123.043 338.207 101 329C91.5719 344.671 91.5804 363.309 87 388C86.0987 409.439 86.956 420.496 89.5 439.5L104.5 515L118 528L140 532.5L147.5 530.5V508.5V473L150.5 436.5C151.667 426.667 153.3 403.7 150.5 390.5C147.7 377.3 141.333 370.333 138.5 368.5Z" fill="url(#paint16_linear_1_8)"/>
<path d="M171 388C185.544 358.511 194.69 344.389 214 326.5C221.144 344.519 222.484 362.837 226.5 390.5L223.5 455L208.5 521.5C207.833 525.167 203.6 533 192 535C180.4 537 178.167 535.833 178.5 535L164 521.5L161 457.5V413.5C163.451 401.867 165.041 395.595 171 388Z" fill="url(#paint17_linear_1_8)"/>
<path d="M118 573L108.5 569H104.5L101.5 590V617L121 685.5L127 696.5L145 693V632L147.5 602.5L142.5 576.5C141.667 574 139.1 569.8 135.5 573C131.9 576.2 122.333 574.333 118 573Z" fill="url(#paint18_linear_1_8)"/>
<path d="M184.5 576.5L167.5 569L164 579.5L158.5 606V632L161 685.5L167.5 693H184.5L192 660.5L201.5 624.5V611.5V576.5C201.167 575.333 198.8 573.7 192 576.5C185.2 579.3 184.5 576.5 184.5 576.5Z" fill="url(#paint19_linear_1_8)"/>
<path d="M138.5 368.5C128.037 349.56 123.043 338.207 101 329C91.5719 344.671 91.5804 363.309 87 388C86.0987 409.439 86.956 420.496 89.5 439.5L104.5 515L118 528L140 532.5L147.5 530.5V508.5V473L150.5 436.5C151.667 426.667 153.3 403.7 150.5 390.5C147.7 377.3 141.333 370.333 138.5 368.5Z" stroke="black"/>
<path d="M171 388C185.544 358.511 194.69 344.389 214 326.5C221.144 344.519 222.484 362.837 226.5 390.5L223.5 455L208.5 521.5C207.833 525.167 203.6 533 192 535C180.4 537 178.167 535.833 178.5 535L164 521.5L161 457.5V413.5C163.451 401.867 165.041 395.595 171 388Z" stroke="black"/>
<path d="M118 573L108.5 569H104.5L101.5 590V617L121 685.5L127 696.5L145 693V632L147.5 602.5L142.5 576.5C141.667 574 139.1 569.8 135.5 573C131.9 576.2 122.333 574.333 118 573Z" stroke="black"/>
<path d="M184.5 576.5L167.5 569L164 579.5L158.5 606V632L161 685.5L167.5 693H184.5L192 660.5L201.5 624.5V611.5V576.5C201.167 575.333 198.8 573.7 192 576.5C185.2 579.3 184.5 576.5 184.5 576.5Z" stroke="black"/>
</g>
</g>
<defs>
<filter id="filter0_d_1_8" x="0" y="0.5" width="306.758" height="766.5" filterUnits="userSpaceOnUse" color-interpolation-filters="sRGB">
<feFlood flood-opacity="0" result="BackgroundImageFix"/>
<feColorMatrix in="SourceAlpha" type="matrix" values="0 0 0 0 0 0 0 0 0 0 0 0 0 0 0 0 0 0 127 0" result="hardAlpha"/>
<feOffset dy="4"/>
<feGaussianBlur stdDeviation="2"/>
<feComposite in2="hardAlpha" operator="out"/>
<feColorMatrix type="matrix" values="0 0 0 0 0 0 0 0 0 0 0 0 0 0 0 0 0 0 0.25 0"/>
<feBlend mode="normal" in2="BackgroundImageFix" result="effect1_dropShadow_1_8"/>
<feBlend mode="normal" in="SourceGraphic" in2="effect1_dropShadow_1_8" result="shape"/>
</filter>
<linearGradient id="paint0_linear_1_8" x1="203.636" y1="126.155" x2="206.203" y2="175.071" gradientUnits="userSpaceOnUse">
<stop stop-color="#B73131"/>
<stop offset="1" stop-color="#D9D9D9" stop-opacity="0"/>
</linearGradient>
<linearGradient id="paint1_linear_1_8" x1="114.338" y1="127.511" x2="113.68" y2="174.783" gradientUnits="userSpaceOnUse">
<stop stop-color="#B73131"/>
<stop offset="1" stop-color="#D9D9D9" stop-opacity="0"/>
</linearGradient>
<linearGradient id="paint2_linear_1_8" x1="165" y1="220.5" x2="151" y2="557.5" gradientUnits="userSpaceOnUse">
<stop stop-color="#B73131"/>
<stop offset="1" stop-color="#D9D9D9" stop-opacity="0"/>
</linearGradient>
<linearGradient id="paint3_linear_1_8" x1="165" y1="220.5" x2="151" y2="557.5" gradientUnits="userSpaceOnUse">
<stop stop-color="#B73131"/>
<stop offset="1" stop-color="#D9D9D9" stop-opacity="0"/>
</linearGradient>
<linearGradient id="paint4_linear_1_8" x1="165" y1="220.5" x2="151" y2="557.5" gradientUnits="userSpaceOnUse">
<stop stop-color="#B73131"/>
<stop offset="1" stop-color="#D9D9D9" stop-opacity="0"/>
</linearGradient>
<linearGradient id="paint5_linear_1_8" x1="165" y1="220.5" x2="151" y2="557.5" gradientUnits="userSpaceOnUse">
<stop stop-color="#B73131"/>
<stop offset="1" stop-color="#D9D9D9" stop-opacity="0"/>
</linearGradient>
<linearGradient id="paint6_linear_1_8" x1="165" y1="220.5" x2="151" y2="557.5" gradientUnits="userSpaceOnUse">
<stop stop-color="#B73131"/>
<stop offset="1" stop-color="#D9D9D9" stop-opacity="0"/>
</linearGradient>
<linearGradient id="paint7_linear_1_8" x1="165" y1="220.5" x2="151" y2="557.5" gradientUnits="userSpaceOnUse">
<stop stop-color="#B73131"/>
<stop offset="1" stop-color="#D9D9D9" stop-opacity="0"/>
</linearGradient>
<linearGradient id="paint8_linear_1_8" x1="165" y1="220.5" x2="151" y2="557.5" gradientUnits="userSpaceOnUse">
<stop stop-color="#B73131"/>
<stop offset="1" stop-color="#D9D9D9" stop-opacity="0"/>
</linearGradient>
<linearGradient id="paint9_linear_1_8" x1="165" y1="220.5" x2="151" y2="557.5" gradientUnits="userSpaceOnUse">
<stop stop-color="#B73131"/>
<stop offset="1" stop-color="#D9D9D9" stop-opacity="0"/>
</linearGradient>
<linearGradient id="paint10_linear_1_8" x1="155.872" y1="141.5" x2="145.5" y2="622.5" gradientUnits="userSpaceOnUse">
<stop stop-color="#B73131"/>
<stop offset="1" stop-color="#B73131" stop-opacity="0"/>
</linearGradient>
<linearGradient id="paint11_linear_1_8" x1="155.872" y1="141.5" x2="145.5" y2="622.5" gradientUnits="userSpaceOnUse">
<stop stop-color="#B73131"/>
<stop offset="1" stop-color="#B73131" stop-opacity="0"/>
</linearGradient>
<linearGradient id="paint12_linear_1_8" x1="155.872" y1="141.5" x2="145.5" y2="622.5" gradientUnits="userSpaceOnUse">
<stop stop-color="#B73131"/>
<stop offset="1" stop-color="#B73131" stop-opacity="0"/>
</linearGradient>
<linearGradient id="paint13_linear_1_8" x1="155.872" y1="141.5" x2="145.5" y2="622.5" gradientUnits="userSpaceOnUse">
<stop stop-color="#B73131"/>
<stop offset="1" stop-color="#B73131" stop-opacity="0"/>
</linearGradient>
<linearGradient id="paint14_linear_1_8" x1="155.872" y1="141.5" x2="145.5" y2="622.5" gradientUnits="userSpaceOnUse">
<stop stop-color="#B73131"/>
<stop offset="1" stop-color="#B73131" stop-opacity="0"/>
</linearGradient>
<linearGradient id="paint15_linear_1_8" x1="155.872" y1="141.5" x2="145.5" y2="622.5" gradientUnits="userSpaceOnUse">
<stop stop-color="#B73131"/>
<stop offset="1" stop-color="#B73131" stop-opacity="0"/>
</linearGradient>
<linearGradient id="paint16_linear_1_8" x1="156.576" y1="326.5" x2="153" y2="1169.5" gradientUnits="userSpaceOnUse">
<stop stop-color="#B73131"/>
<stop offset="1" stop-color="#B73131" stop-opacity="0"/>
</linearGradient>
<linearGradient id="paint17_linear_1_8" x1="156.576" y1="326.5" x2="153" y2="1169.5" gradientUnits="userSpaceOnUse">
<stop stop-color="#B73131"/>
<stop offset="1" stop-color="#B73131" stop-opacity="0"/>
</linearGradient>
<linearGradient id="paint18_linear_1_8" x1="156.576" y1="326.5" x2="153" y2="1169.5" gradientUnits="userSpaceOnUse">
<stop stop-color="#B73131"/>
<stop offset="1" stop-color="#B73131" stop-opacity="0"/>
</linearGradient>
<linearGradient id="paint19_linear_1_8" x1="156.576" y1="326.5" x2="153" y2="1169.5" gradientUnits="userSpaceOnUse">
<stop stop-color="#B73131"/>
<stop offset="1" stop-color="#B73131" stop-opacity="0"/>
</linearGradient>
</defs>
</svg>
