<svg width="299" height="754" viewBox="0 0 299 754" fill="none" xmlns="http://www.w3.org/2000/svg">
<g id="body-back">
<g id="body">
<path d="M148 0.5C137.934 2.2826 132.431 3.71425 124 10.5C119.042 16.5064 117.206 19.4981 116 24V46H113.5L111.5 44.5L109 48L110.5 59L116 71L118.5 69.5L120 78L122.5 85.5L121.5 101.5C103.072 113.547 93.8912 120.707 79 134C73.5339 135.528 70.469 136.832 65 140.5C54.3871 148.63 50.7918 154.459 46.5 166C44.35 180.114 44.5612 187.695 48 200.5L43.5 259.5L36 287V356.5L33.5 376.5L13 392.5L10 403L1 415.5V419.5C4.12419 420.362 5.87596 420.216 9 419.5L15.5 411.5L20.5 403L23.5 451L25.5 455H30.5V459C32.158 461.65 33.287 462.613 36 462.5L39.5 461V453.5L41 456.5C42.5026 457.142 43.2821 457.203 44.5 456.5C46.2247 453.429 46.3847 452.497 46.5 451V431.5L48.5 435V444L51 446.5C52.4066 446.924 53.2718 446.473 55 444L57 419.5L60 409.5L58.5 384L62 358.5L78.5 304.5L81 265.5L85.5 249.5L87.5 218.5L85.5 253L91 274.5L88.5 314L75 371.5L72 405.5V436.5C78.0554 478.473 83.3392 496.05 94 523.5L97.5 551.5V609.5L105.5 641.5L119 698L120.5 721.5L113 733L97.5 743C96.5 744 94.8 746.4 96 748C97.2 749.6 99.8333 750.667 101 751H132H146.5C147.184 751.098 148.441 750.806 149.767 749.5C150.702 748.578 151.672 747.152 152.5 745C154.5 739.8 154 736.833 153.5 736L149.5 728L148.929 726L147.5 721L145 698L148 631C149.146 625.224 149.553 620.296 150 609.5C147.598 589.495 145.506 578.318 139.5 558.5C139.592 557.538 139.681 556.599 139.769 555.679C141.394 538.668 142.384 528.304 143 498C145.22 475.819 145.88 464.774 145.936 447.719L147 429.5L144.5 405.5L147 399L149 396L148 402L147 411.5L151.5 472.5C150.103 503.019 150.525 510.322 151.086 520.038C151.224 522.421 151.37 524.949 151.5 528L159 565.5L153.5 609.5L155 631L157 679.5L152 707.5L149.5 719L148.929 726L149.5 728L153.5 736C154 736.833 154.5 739.8 152.5 745C151.672 747.152 150.702 748.578 149.767 749.5L153.5 753H171.5C172.333 753.333 174.9 753.4 178.5 751C182.1 748.6 184 746 184.5 745L182 739.5L180 736L178.5 724L182 700C192.155 661.555 201.799 629.388 203 615C204.342 604.762 204.837 599.45 204.5 592L201 568.5C200.333 563 199.2 550.2 200 543C200.8 535.8 202.333 529 203 526.5L204.5 484C211.04 467.471 214.056 453.759 218 419.5V384C214.849 366.777 213.122 357.551 211 351.5C211.313 342.838 211.82 338.527 211 328L207 311V291.5L204 276C202.799 256.545 202.634 248.993 204 246.5L208.5 236L218 281L219 308.5C223.966 324.443 223.35 323.936 237 364V384V415.5L245 446.5C246.953 448.593 248.047 448.452 250 446.5L249 426H250L254 454L255.5 459C256.867 460.207 257.633 460.321 259 459L260.5 454L262.5 460.5C264.976 462.243 266.276 462.056 268.5 460.5L269.5 451.5L270.5 455.5C272.257 456.678 273.243 456.653 275 455.5L276.5 451.5V402C278.167 405.167 282.3 412.3 285.5 415.5C288.7 418.7 294.833 418.5 297.5 418C298.167 415.916 298.111 414.832 297.5 413C293.708 410.332 291.629 409.514 287.5 402L284.5 394.5L264 376L260.5 353L260.536 352.436C262.228 326.035 263.188 311.059 260.5 276L253.5 258L248.5 202.5V163C241.467 151.064 236.632 145.544 225.5 139C207.518 122.777 196.889 114.025 173 101.5L176.765 71C181 73 182 71 182 71L188.5 52L187.5 46.5C183.592 44.562 182.645 44.8452 182 46.5V22.5C178.88 17.1721 179 16.5873 173 10.5C167 4.41273 168.481 4.33391 158 0.5H148Z" fill="#F2BDBB"/>
<path d="M87.5 218.5L85.5 249.5L81 265.5L78.5 304.5L62 358.5L58.5 384L60 409.5L57 419.5L55 444C53.2718 446.473 52.4066 446.924 51 446.5L48.5 444V435L46.5 431.5V451C46.3847 452.497 46.2247 453.429 44.5 456.5C43.2821 457.203 42.5026 457.142 41 456.5L39.5 453.5V461L36 462.5C33.287 462.613 32.158 461.65 30.5 459V455H25.5L23.5 451L20.5 403L15.5 411.5L9 419.5C5.87596 420.216 4.12419 420.362 1 419.5V415.5L10 403L13 392.5L33.5 376.5L36 356.5V287L43.5 259.5L48 200.5C44.5612 187.695 44.35 180.114 46.5 166C50.7918 154.459 54.3871 148.63 65 140.5C70.469 136.832 73.5339 135.528 79 134C93.8912 120.707 103.072 113.547 121.5 101.5L122.5 85.5L120 78L118.5 69.5L116 71L110.5 59L109 48L111.5 44.5L113.5 46H116V24C117.206 19.4981 119.042 16.5064 124 10.5C132.431 3.71425 137.934 2.2826 148 0.5H158C168.481 4.33391 167 4.41273 173 10.5C179 16.5873 178.88 17.1721 182 22.5V46.5C182.645 44.8452 183.592 44.562 187.5 46.5L188.5 52L182 71C182 71 181 73 176.765 71M87.5 218.5L85.5 253L91 274.5L88.5 314L75 371.5L72 405.5V436.5C78.0554 478.473 83.3392 496.05 94 523.5L97.5 551.5V609.5L105.5 641.5L119 698L120.5 721.5L113 733L97.5 743C96.5 744 94.8 746.4 96 748C97.2 749.6 99.8333 750.667 101 751H132H146.5C147.184 751.098 148.441 750.806 149.767 749.5M87.5 218.5C87.3802 208.567 87.1992 203.497 85.5 200.5M148.929 726L149.5 728L153.5 736C154 736.833 154.5 739.8 152.5 745C151.672 747.152 150.702 748.578 149.767 749.5M148.929 726L147.5 721L145 698L148 631C149.146 625.224 149.553 620.296 150 609.5C147.598 589.495 145.506 578.318 139.5 558.5C139.592 557.538 139.681 556.599 139.769 555.679C141.394 538.668 142.384 528.304 143 498C145.22 475.819 145.88 464.774 145.936 447.719L147 429.5L144.5 405.5L147 399L149 396L148 402L147 411.5L151.5 472.5C150.103 503.019 150.525 510.322 151.086 520.038C151.224 522.421 151.37 524.949 151.5 528L159 565.5L153.5 609.5L155 631L157 679.5L152 707.5L149.5 719L148.929 726ZM149.767 749.5L153.5 753H171.5C172.333 753.333 174.9 753.4 178.5 751C182.1 748.6 184 746 184.5 745L182 739.5L180 736L178.5 724L182 700C192.155 661.555 201.799 629.388 203 615C204.342 604.762 204.837 599.45 204.5 592L201 568.5C200.333 563 199.2 550.2 200 543C200.8 535.8 202.333 529 203 526.5L204.5 484C211.04 467.471 214.056 453.759 218 419.5V384C214.849 366.777 213.122 357.551 211 351.5C211.313 342.838 211.82 338.527 211 328L207 311V291.5L204 276C202.799 256.545 202.634 248.993 204 246.5L208.5 236M208.5 236L218 281L219 308.5C223.966 324.443 223.35 323.936 237 364V384V415.5L245 446.5C246.953 448.593 248.047 448.452 250 446.5L249 426H250L254 454L255.5 459C256.867 460.207 257.633 460.321 259 459L260.5 454L262.5 460.5C264.976 462.243 266.276 462.056 268.5 460.5L269.5 451.5L270.5 455.5C272.257 456.678 273.243 456.653 275 455.5L276.5 451.5V402C278.167 405.167 282.3 412.3 285.5 415.5C288.7 418.7 294.833 418.5 297.5 418C298.167 415.916 298.111 414.832 297.5 413C293.708 410.332 291.629 409.514 287.5 402L284.5 394.5L264 376L260.5 353M208.5 236C205.76 226.197 205.721 221.814 207 215C207.613 210.402 207.949 208.003 208.5 205M260.5 353L260.536 352.436M260.5 353C260.512 352.811 260.524 352.623 260.536 352.436M178 61L176.765 71M176.765 71L173 101.5C196.889 114.025 207.518 122.777 225.5 139C236.632 145.544 241.467 151.064 248.5 163V202.5L253.5 258L260.5 276C263.188 311.059 262.228 326.035 260.536 352.436" stroke="black"/>
</g>
<g id="components">
<g class="hover" id="shoulder-back">
<path d="M124 100.5L138 99.5L134 134C115.132 135.657 104.379 134.883 85 131.5C98.4692 119.194 107.087 112.415 124 100.5Z" fill="url(#paint0_linear_7_3)"/>
<path d="M170.5 102L159 99.5L161 135.5C183.869 136.715 195.597 136.291 214 133C199.572 120.324 190.086 113.533 170.5 102Z" fill="url(#paint1_linear_7_3)"/>
<path d="M124 100.5L138 99.5L134 134C115.132 135.657 104.379 134.883 85 131.5C98.4692 119.194 107.087 112.415 124 100.5Z" stroke="black"/>
<path d="M170.5 102L159 99.5L161 135.5C183.869 136.715 195.597 136.291 214 133C199.572 120.324 190.086 113.533 170.5 102Z" stroke="black"/>
</g>
<g id="back">
<g class="hover" id="back-inner">
<path id="Vector" d="M157.5 148H169L176 174.5C179.906 195.152 173.363 212.539 153.5 249H149C151.505 224 152.869 212.953 153.5 201.5C154.261 183.201 154.701 173.705 155.5 157.5L157.5 148Z" fill="url(#paint2_linear_7_3)"/>
<path id="Vector_2" d="M126 148H136C138.667 156.5 143.768 173.647 143.5 174.5C138.165 191.481 139.344 238.855 143.5 249H140C127.022 229.917 120.823 219.397 115 201.5L120 159.5L126 148Z" fill="url(#paint3_linear_7_3)"/>
<path id="Vector_3" d="M157.5 148H169L176 174.5C179.906 195.152 173.363 212.539 153.5 249H149C151.505 224 152.869 212.953 153.5 201.5C154.261 183.201 154.701 173.705 155.5 157.5L157.5 148Z" stroke="black"/>
<path id="Vector_4" d="M126 148H136C138.667 156.5 143.768 173.647 143.5 174.5C138.165 191.481 139.344 238.855 143.5 249H140C127.022 229.917 120.823 219.397 115 201.5L120 159.5L126 148Z" stroke="black"/>
</g>
<g class="hover" id="back-outer">
<path d="M110.5 200L108 148L75 157C70.4822 159.252 68.9377 161.828 70 171.5L88.5 200V250L95 274.5L91.5 308C98.6149 317.11 106.348 317.971 117.5 322.5C119.58 303.978 120.565 293.171 126 282.5C132.778 276.158 135.813 271.974 140 263.5C129.076 237.044 122.235 224.202 110.5 200Z" fill="url(#paint4_linear_7_3)"/>
<path d="M181.5 200L188 148C197.743 152.93 205.808 154.904 219.825 158.335L220.5 158.5C221.983 164.085 221.628 168.686 220.5 177.5L204 206.5L205.5 234.5L200.5 250L203 280L205.5 311.5C202.711 316.112 200.291 318.555 193.5 322.5L186 319L181.5 282.5C179.567 277.185 174.899 272.721 157.5 261C157.333 256.167 157.1 246.5 157.5 246.5C157.9 246.5 173.667 215.5 181.5 200Z" fill="url(#paint5_linear_7_3)"/>
<path d="M110.5 200L108 148L75 157C70.4822 159.252 68.9377 161.828 70 171.5L88.5 200V250L95 274.5L91.5 308C98.6149 317.11 106.348 317.971 117.5 322.5C119.58 303.978 120.565 293.171 126 282.5C132.778 276.158 135.813 271.974 140 263.5C129.076 237.044 122.235 224.202 110.5 200Z" stroke="black"/>
<path d="M181.5 200L188 148C197.743 152.93 205.808 154.904 219.825 158.335L220.5 158.5C221.983 164.085 221.628 168.686 220.5 177.5L204 206.5L205.5 234.5L200.5 250L203 280L205.5 311.5C202.711 316.112 200.291 318.555 193.5 322.5L186 319L181.5 282.5C179.567 277.185 174.899 272.721 157.5 261C157.333 256.167 157.1 246.5 157.5 246.5C157.9 246.5 173.667 215.5 181.5 200Z" stroke="black"/>
</g>
</g>
<g class="hover" id="butt">
<path d="M93.5 338.5L99.5 320L140 343L151 363.5V387.5C149.605 392.921 146.384 397.641 140 406.5C131.472 410.953 125.803 411.778 114.5 411C106.625 405.574 102.397 402.546 99.5 397.5C98.5 396.833 95.9 392 93.5 378C91.1 364 92.5 345.833 93.5 338.5Z" fill="url(#paint6_linear_7_3)"/>
<path d="M176 341.5L204 320L209 355V391C206.598 396.026 205.363 398.893 202 403.5C202.448 405.761 194.598 408.738 176 411C159.72 412.98 154.667 405.167 154 400V387.5L156.5 373L176 341.5Z" fill="url(#paint7_linear_7_3)"/>
<path d="M93.5 338.5L99.5 320L140 343L151 363.5V387.5C149.605 392.921 146.384 397.641 140 406.5C131.472 410.953 125.803 411.778 114.5 411C106.625 405.574 102.397 402.546 99.5 397.5C98.5 396.833 95.9 392 93.5 378C91.1 364 92.5 345.833 93.5 338.5Z" stroke="black"/>
<path d="M176 341.5L204 320L209 355V391C206.598 396.026 205.363 398.893 202 403.5C202.448 405.761 194.598 408.738 176 411C159.72 412.98 154.667 405.167 154 400V387.5L156.5 373L176 341.5Z" stroke="black"/>
</g>
<g class="hover" id="arms-back">
<path d="M81 149.5L68 142.5C63.3522 144.322 59.991 147.495 53 156C48.7383 163.109 47.5446 167.582 46.5 176C47.3513 187.656 48.2757 191.53 50.5 195L53 188C56.1754 182.082 59.0134 179.09 66.5 174.5V170V159C70.6695 153.249 74.0831 151.495 81 149.5Z" fill="url(#paint8_linear_7_3)"/>
<path d="M242 156C237.063 149.175 234.116 145.533 225.5 142.5L213 149.5L222.5 156L224 161.5L225.5 174.5C232.524 175.841 235.628 177.651 239.5 183L246 185.5V174.5C245.548 165.987 245.013 161.542 242 156Z" fill="url(#paint9_linear_7_3)"/>
<path d="M72 185.5C67.7041 183.825 65.2958 182.995 61 185.5C51.333 193.702 51.9586 200.844 50.5 212.5C47.5299 233.688 47.2648 244.497 46.5 264L50.5 271.5L59.5 285L74 292C76.1907 289.807 76.893 288.299 77 285V266L81 250C83.9356 233.805 84.4082 222.572 82.5 197.5C79.5809 190.635 77.5763 187.466 72 185.5Z" fill="url(#paint10_linear_7_3)"/>
<path d="M213 193.5C217.835 185.37 220.56 181.896 225.5 181.5C232.759 181.01 236.045 183.495 241.788 187.84L242 188C244.193 197.349 245.269 202.644 246 212.5L252.5 264L249.5 271.5L239.5 285L225.5 292C222.545 290.917 221.398 289.469 220.5 285L219 266L213 250C209.41 228.628 208.769 216.381 213 193.5Z" fill="url(#paint11_linear_7_3)"/>
<path d="M59.5 295.5L41.5 277.5C36.7712 295.173 37.5249 319.442 40 367.5C46.8344 371.792 50.6656 372.237 57.5 367.5C64.6063 342.618 68.5367 328.595 74 301.5L59.5 295.5Z" fill="url(#paint12_linear_7_3)"/>
<path d="M239.5 295.5L257.5 277.5C260.629 305.346 259.955 326.625 257.5 367.5C251.561 371.522 247.676 371.73 239.5 367.5C230.804 338.655 225.928 322.484 222.5 301.5L239.5 295.5Z" fill="url(#paint13_linear_7_3)"/>
<path d="M81 149.5L68 142.5C63.3522 144.322 59.991 147.495 53 156C48.7383 163.109 47.5446 167.582 46.5 176C47.3513 187.656 48.2757 191.53 50.5 195L53 188C56.1754 182.082 59.0134 179.09 66.5 174.5V170V159C70.6695 153.249 74.0831 151.495 81 149.5Z" stroke="black"/>
<path d="M242 156C237.063 149.175 234.116 145.533 225.5 142.5L213 149.5L222.5 156L224 161.5L225.5 174.5C232.524 175.841 235.628 177.651 239.5 183L246 185.5V174.5C245.548 165.987 245.013 161.542 242 156Z" stroke="black"/>
<path d="M72 185.5C67.7041 183.825 65.2958 182.995 61 185.5C51.333 193.702 51.9586 200.844 50.5 212.5C47.5299 233.688 47.2648 244.497 46.5 264L50.5 271.5L59.5 285L74 292C76.1907 289.807 76.893 288.299 77 285V266L81 250C83.9356 233.805 84.4082 222.572 82.5 197.5C79.5809 190.635 77.5763 187.466 72 185.5Z" stroke="black"/>
<path d="M213 193.5C217.835 185.37 220.56 181.896 225.5 181.5C232.759 181.01 236.045 183.495 241.788 187.84L242 188C244.193 197.349 245.269 202.644 246 212.5L252.5 264L249.5 271.5L239.5 285L225.5 292C222.545 290.917 221.398 289.469 220.5 285L219 266L213 250C209.41 228.628 208.769 216.381 213 193.5Z" stroke="black"/>
<path d="M59.5 295.5L41.5 277.5C36.7712 295.173 37.5249 319.442 40 367.5C46.8344 371.792 50.6656 372.237 57.5 367.5C64.6063 342.618 68.5367 328.595 74 301.5L59.5 295.5Z" stroke="black"/>
<path d="M239.5 295.5L257.5 277.5C260.629 305.346 259.955 326.625 257.5 367.5C251.561 371.522 247.676 371.73 239.5 367.5C230.804 338.655 225.928 322.484 222.5 301.5L239.5 295.5Z" stroke="black"/>
</g>
<g class="hover" id="legs-back">
<path d="M96 521C77.73 467.599 74.1951 439.931 76.5 393.5C79.0543 388.053 82.531 388.306 89.5 390C93.3988 401.289 97.6757 407.43 109.5 418C122.337 418.98 129.559 417.818 142.5 412.5C143.451 466.308 141.666 495.36 135 545.5L96 521Z" fill="url(#paint14_linear_7_3)"/>
<path d="M210.5 393.5C214.433 387.493 215.239 388.833 216 393.5C214.767 434.852 211.937 454.988 201 482.5C201.238 496.858 201.34 504.929 199 521L159.5 545.5L155.5 469.5L153.5 418C178.939 419.306 188.74 418.03 199 412.5L210.5 393.5Z" fill="url(#paint15_linear_7_3)"/>
<path d="M137 555.5L101 542C100.443 569.687 100.535 585.061 102 612C107.051 640.196 110.027 655.999 120 684H142.5L148 612C144.566 590.044 142.327 577.695 137 555.5Z" fill="url(#paint16_linear_7_3)"/>
<path d="M196.5 542L162 555.5L156.5 612C154.782 625.08 157.645 652.326 159.5 684H182.5C190.826 658.487 194.807 642.208 201.5 612C201.683 590.782 199.863 573.379 196.5 542Z" fill="url(#paint17_linear_7_3)"/>
<path d="M96 521C77.73 467.599 74.1951 439.931 76.5 393.5C79.0543 388.053 82.531 388.306 89.5 390C93.3988 401.289 97.6757 407.43 109.5 418C122.337 418.98 129.559 417.818 142.5 412.5C143.451 466.308 141.666 495.36 135 545.5L96 521Z" stroke="black"/>
<path d="M210.5 393.5C214.433 387.493 215.239 388.833 216 393.5C214.767 434.852 211.937 454.988 201 482.5C201.238 496.858 201.34 504.929 199 521L159.5 545.5L155.5 469.5L153.5 418C178.939 419.306 188.74 418.03 199 412.5L210.5 393.5Z" stroke="black"/>
<path d="M137 555.5L101 542C100.443 569.687 100.535 585.061 102 612C107.051 640.196 110.027 655.999 120 684H142.5L148 612C144.566 590.044 142.327 577.695 137 555.5Z" stroke="black"/>
<path d="M196.5 542L162 555.5L156.5 612C154.782 625.08 157.645 652.326 159.5 684H182.5C190.826 658.487 194.807 642.208 201.5 612C201.683 590.782 199.863 573.379 196.5 542Z" stroke="black"/>
</g>
</g>
</g>
<defs>
<linearGradient id="paint0_linear_7_3" x1="149.5" y1="99.5" x2="149" y2="305.5" gradientUnits="userSpaceOnUse">
<stop stop-color="#B73131"/>
<stop offset="1" stop-color="#D9D9D9" stop-opacity="0"/>
</linearGradient>
<linearGradient id="paint1_linear_7_3" x1="149.5" y1="99.5" x2="149" y2="305.5" gradientUnits="userSpaceOnUse">
<stop stop-color="#B73131"/>
<stop offset="1" stop-color="#D9D9D9" stop-opacity="0"/>
</linearGradient>
<linearGradient id="paint2_linear_7_3" x1="148" y1="103" x2="147.5" y2="309" gradientUnits="userSpaceOnUse">
<stop stop-color="#B73131"/>
<stop offset="1" stop-color="#D9D9D9" stop-opacity="0"/>
</linearGradient>
<linearGradient id="paint3_linear_7_3" x1="148" y1="103" x2="147.5" y2="309" gradientUnits="userSpaceOnUse">
<stop stop-color="#B73131"/>
<stop offset="1" stop-color="#D9D9D9" stop-opacity="0"/>
</linearGradient>
<linearGradient id="paint4_linear_7_3" x1="145.581" y1="148" x2="151.5" y2="422.5" gradientUnits="userSpaceOnUse">
<stop stop-color="#B73131"/>
<stop offset="1" stop-color="#D9D9D9" stop-opacity="0"/>
</linearGradient>
<linearGradient id="paint5_linear_7_3" x1="145.581" y1="148" x2="151.5" y2="422.5" gradientUnits="userSpaceOnUse">
<stop stop-color="#B73131"/>
<stop offset="1" stop-color="#D9D9D9" stop-opacity="0"/>
</linearGradient>
<linearGradient id="paint6_linear_7_3" x1="151" y1="358" x2="179" y2="584.5" gradientUnits="userSpaceOnUse">
<stop stop-color="#B73131"/>
<stop offset="1" stop-color="#D9D9D9" stop-opacity="0"/>
</linearGradient>
<linearGradient id="paint7_linear_7_3" x1="151" y1="358" x2="179" y2="584.5" gradientUnits="userSpaceOnUse">
<stop stop-color="#B73131"/>
<stop offset="1" stop-color="#D9D9D9" stop-opacity="0"/>
</linearGradient>
<linearGradient id="paint8_linear_7_3" x1="149" y1="306.5" x2="161.5" y2="440.5" gradientUnits="userSpaceOnUse">
<stop stop-color="#B73131"/>
<stop offset="1" stop-color="#B73131" stop-opacity="0"/>
</linearGradient>
<linearGradient id="paint9_linear_7_3" x1="149" y1="306.5" x2="161.5" y2="440.5" gradientUnits="userSpaceOnUse">
<stop stop-color="#B73131"/>
<stop offset="1" stop-color="#B73131" stop-opacity="0"/>
</linearGradient>
<linearGradient id="paint10_linear_7_3" x1="149" y1="306.5" x2="161.5" y2="440.5" gradientUnits="userSpaceOnUse">
<stop stop-color="#B73131"/>
<stop offset="1" stop-color="#B73131" stop-opacity="0"/>
</linearGradient>
<linearGradient id="paint11_linear_7_3" x1="149" y1="306.5" x2="161.5" y2="440.5" gradientUnits="userSpaceOnUse">
<stop stop-color="#B73131"/>
<stop offset="1" stop-color="#B73131" stop-opacity="0"/>
</linearGradient>
<linearGradient id="paint12_linear_7_3" x1="149" y1="306.5" x2="161.5" y2="440.5" gradientUnits="userSpaceOnUse">
<stop stop-color="#B73131"/>
<stop offset="1" stop-color="#B73131" stop-opacity="0"/>
</linearGradient>
<linearGradient id="paint13_linear_7_3" x1="149" y1="306.5" x2="161.5" y2="440.5" gradientUnits="userSpaceOnUse">
<stop stop-color="#B73131"/>
<stop offset="1" stop-color="#B73131" stop-opacity="0"/>
</linearGradient>
<linearGradient id="paint14_linear_7_3" x1="146" y1="548.5" x2="155.5" y2="772" gradientUnits="userSpaceOnUse">
<stop stop-color="#B73131"/>
<stop offset="1" stop-color="#B73131" stop-opacity="0"/>
</linearGradient>
<linearGradient id="paint15_linear_7_3" x1="146" y1="548.5" x2="155.5" y2="772" gradientUnits="userSpaceOnUse">
<stop stop-color="#B73131"/>
<stop offset="1" stop-color="#B73131" stop-opacity="0"/>
</linearGradient>
<linearGradient id="paint16_linear_7_3" x1="146" y1="548.5" x2="155.5" y2="772" gradientUnits="userSpaceOnUse">
<stop stop-color="#B73131"/>
<stop offset="1" stop-color="#B73131" stop-opacity="0"/>
</linearGradient>
<linearGradient id="paint17_linear_7_3" x1="146" y1="548.5" x2="155.5" y2="772" gradientUnits="userSpaceOnUse">
<stop stop-color="#B73131"/>
<stop offset="1" stop-color="#B73131" stop-opacity="0"/>
</linearGradient>
</defs>
</svg>
