<svg width="151" height="153" viewBox="0 0 151 153" fill="none" xmlns="http://www.w3.org/2000/svg">
<path d="M126.524 20.1597C137.724 31.1597 146.724 42.2597 149.724 54.5597C152.624 66.8597 149.524 80.3597 146.224 94.8597C142.824 109.26 139.324 124.66 129.724 134.86C120.124 145.06 104.424 150.16 87.5237 151.76C70.6237 153.36 52.6237 151.56 37.2237 143.16C21.8237 134.86 9.0237 120.06 3.3237 102.86C-2.3763 85.5597 -0.976303 66.0597 9.3237 53.9597C19.6237 41.9597 38.8237 37.4597 53.5237 27.5597C68.3237 17.6597 78.5237 2.45967 90.3237 0.259668C102.024 -1.84033 115.424 9.15967 126.524 20.1597Z" fill="url(#paint0_linear_124_3)"/>
<defs>
<linearGradient id="paint0_linear_124_3" x1="75.4379" y1="0" x2="75.4379" y2="152.288" gradientUnits="userSpaceOnUse">
<stop stop-color="#8084F9"/>
<stop offset="1" stop-color="#5E63F8"/>
</linearGradient>
</defs>
</svg>
